<svg xmlns="http://www.w3.org/2000/svg" width="64" height="64" viewBox="0 0 64 64" role="img" aria-label="Salam Seeds">
  <defs>
    <linearGradient id="bg" x1="0" x2="1" y1="0" y2="1">
      <stop offset="0%" stop-color="#BEE7E2"/>
      <stop offset="100%" stop-color="#B9B3FF"/>
    </linearGradient>
  </defs>
  <rect x="4" y="4" width="56" height="56" rx="14" fill="url(#bg)"/>
  <path d="M20 34c0-10 7-18 16-18s14 7 14 17c0 12-8 25-18 25S20 46 20 34Z" fill="#F3C9A7" stroke="#C89D7C" stroke-width="3" stroke-linecap="round" stroke-linejoin="round"/>
  <path d="M31 16c4 0 11 3 15 7 4 5 5 11 2 15-5 8-18 8-24 0-5-8-2-22 7-22Z" fill="#CFF7D4" stroke="#5BB6A9" stroke-width="3" stroke-linecap="round" stroke-linejoin="round"/>
  <circle cx="29" cy="36" r="2" fill="#3B2E2A"/>
  <circle cx="41" cy="36" r="2" fill="#3B2E2A"/>
  <path d="M30 44c3 3 8 3 11 0" fill="none" stroke="#3B2E2A" stroke-width="3" stroke-linecap="round"/>
</svg>
