<svg xmlns="http://www.w3.org/2000/svg" width="256" height="256" viewBox="0 0 256 256" role="img" aria-label="Seedly mascot">
  <defs>
    <linearGradient id="g1" x1="0" x2="1" y1="0" y2="1">
      <stop offset="0%" stop-color="#BEE7E2"/>
      <stop offset="100%" stop-color="#F6C6D7"/>
    </linearGradient>
    <linearGradient id="g2" x1="0" x2="1" y1="1" y2="0">
      <stop offset="0%" stop-color="#B9B3FF"/>
      <stop offset="100%" stop-color="#CFF7D4"/>
    </linearGradient>
  </defs>

  <!-- soft blob background -->
  <path d="M55 62c26-35 70-43 104-27s57 57 50 92-42 60-79 68-90-17-108-56S29 97 55 62Z" fill="url(#g1)" opacity="0.55"/>
  <!-- seed body -->
  <path d="M80 128c0-47 34-83 76-83s68 31 68 78c0 54-40 111-89 111S80 184 80 128Z" fill="#F3C9A7" stroke="#C89D7C" stroke-width="6" stroke-linecap="round" stroke-linejoin="round"/>
  <!-- leaf -->
  <path d="M132 52c9 0 25 7 35 18 11 12 13 27 7 37-11 19-43 19-56 0-12-18-4-55 14-55Z" fill="url(#g2)" stroke="#5BB6A9" stroke-width="6" stroke-linecap="round" stroke-linejoin="round"/>
  <path d="M136 58c3 16 2 34-2 52" fill="none" stroke="#3D8F85" stroke-width="5" stroke-linecap="round"/>

  <!-- face -->
  <circle cx="120" cy="138" r="6" fill="#3B2E2A"/>
  <circle cx="160" cy="138" r="6" fill="#3B2E2A"/>
  <path d="M124 160c10 10 24 10 34 0" fill="none" stroke="#3B2E2A" stroke-width="6" stroke-linecap="round"/>

  <!-- tiny sparkle -->
  <path d="M202 88l6 12 12 6-12 6-6 12-6-12-12-6 12-6 6-12Z" fill="#FFF7C2" opacity="0.9"/>
</svg>
